# xmcd
#
# Track frame offsets: 
#        300
#        25696
#        49909
#        76832
#        103555
#        127897
#        160217
#        185488
#        209143
#        236198
#        248955
#
# Disc length: 3448 seconds
#
# Revision: 0
# Processed by: cddbd v1.5.2PL0 Copyright (c) Steve Scherf et al.
# Submitted via: ExactAudioCopy v1.0b1
#
DISCID=940d740b
DTITLE=Jeff Healey - Songs From The Road
DYEAR=2009
DGENRE=Blues
TTITLE0=I Think I Love You Too Much
TTITLE1=I'm Ready
TTITLE2=Stop Breaking Down
TTITLE3=Angel Eyes
TTITLE4=Come Together
TTITLE5=Hoochie Coochie Man
TTITLE6=White Room
TTITLE7=While My Guitar Gently Weeps
TTITLE8=Whipping Post
TTITLE9=Teach Your Children Well
TTITLE10=Santa Bring My Baby Back (To Me)
EXTD=
EXTT0=
EXTT1=
EXTT2=
EXTT3=
EXTT4=
EXTT5=
EXTT6=
EXTT7=
EXTT8=
EXTT9=
EXTT10=
PLAYORDER=
